<svg xmlns="http://www.w3.org/2000/svg" viewBox="0 0 132 73"><defs><style>.a{fill:#fff;}</style></defs><title>minilogo-white</title><path class="a" d="M82.54,54.46H49.1A18.25,18.25,0,0,1,49.1,18H82.54a18.25,18.25,0,0,1,0,36.49Zm0-53.53H49.1C29.89.93,14.26,16.76,14.26,36.21S29.89,71.5,49.1,71.5H82.54c19.21,0,34.85-15.83,34.85-35.29A35.11,35.11,0,0,0,82.54.93Z"/><path class="a" d="M130.94,26.62H88a9.6,9.6,0,0,0,0,19.19h43A1.06,1.06,0,0,0,132,44.74v-17a1.06,1.06,0,0,0-1.06-1.07Z"/><path class="a" d="M1.06,26.62H44a9.6,9.6,0,0,1,0,19.19h-43A1.06,1.06,0,0,1,0,44.74v-17a1.06,1.06,0,0,1,1.06-1.07Z"/></svg>