<svg version="1" xmlns="http://www.w3.org/2000/svg" width="933.333" height="933.333" viewBox="0 0 700.000000 700.000000"><path d="M262 202.8c-4.4.2-21.5 2.7-25.5 3.6-32.9 7.9-61.1 25-84.5 51.2-12.7 14.1-23.8 33.1-30.9 53l-3.6 10H85.3c-17.8-.1-33.6.2-35.3.7-1.9.5-3.2 1.6-3.5 3-.3 1.2-.4 20.3-.3 42.5.3 34.5.5 40.4 1.8 41.2.9.6 15.9 1 35.6 1h34.1l2.8 8.2c11.7 35 36 65.7 68 86 15.9 10.1 39.9 19.3 56 21.4 2.2.3 5.6.9 7.5 1.3 1.9.4 7.8.9 13 1 11.5.4 156 .5 168 .1 33.1-1 67.2-14.3 95.4-37 5.2-4.2 19.5-19.3 24.2-25.5 11.2-14.9 20.7-32.8 25.6-48.2l2.3-7.3h35.1c32.7 0 35.2-.1 36.7-1.8s1.7-6 1.7-41.8v-39.9l-2.6-2.4-2.5-2.5h-34.1l-34.1-.1L577 310c-7.9-22.4-21-43-38-60-20.3-20.3-44.2-34.1-72-41.8-4.1-1.2-9.1-2.4-11-2.7-1.9-.3-6-1.1-9-1.7-3.8-.7-32.8-1.1-93-1.2-48.1-.1-89.5 0-92 .2zm177.7 79.6c20.7 4.5 37.5 14.7 50.1 30.5 2.8 3.6 5.2 6.8 5.2 7.1 0 .4-10 .6-22.2.6-23.9.1-28.7.5-35.8 3.1-5.2 1.9-13.6 7.6-16.3 11-1 1.3-2.4 2.9-3.2 3.6-2.2 2.3-6.2 11-7.5 16.7-5.5 23.1 8 45.3 31.7 52.3 4 1.2 10.7 1.6 28.9 1.7 13.1 0 24 .3 24.2.5.6.6-6.6 10-11.2 14.8-11.1 11.2-26.9 19.6-44.1 23.1-10.1 2.1-167.5 2.2-178 .1-13.2-2.6-24.3-7.4-35.1-15-6.3-4.5-16.6-15.2-19.7-20.4l-1.8-3.1h22.4c12.3 0 24.8-.5 27.8-1 20.8-4 36.1-22 35.9-42.5 0-7.1-.1-7.7-1.5-13-2.6-9.8-11.9-21.4-21.2-26.2-9.3-4.9-14.4-5.6-40-5.7-12.8 0-23.3-.2-23.3-.3 0-1 7-9.7 11.7-14.6 10.4-10.7 23.7-18.1 39.8-22.3l9-2.3h84c65.8 0 85.3.3 90.2 1.3z"/></svg>