<svg version="1" xmlns="http://www.w3.org/2000/svg" width="1408" height="1408" viewBox="0 0 1056.000000 1056.000000"><path d="M376.5 243.9c-.2.2-3 .5-6.2.7-8.6.5-17.6 1.6-24.3 2.9-1.4.3-3.6.7-5 1-1.4.2-3.8.7-5.5 1-1.6.3-7.3 1.7-12.5 3-5.2 1.4-10.2 2.8-11 3-.8.2-1.6.4-1.7.5-.2.2-.6.3-1 .4-.5.1-1.4.5-2 .9-.7.5-1.3.6-1.3.2 0-.3-1.7.3-3.9 1.4-2.1 1.1-4.1 1.7-4.5 1.4-.3-.3-1.1-.2-1.8.4-.7.5-4.4 2.2-8.3 3.8-11 4.5-29.1 13.8-38.9 19.9-4.8 3.1-9 5.6-9.3 5.6-.2 0-.9.5-1.6 1-.7.6-5.5 4.3-10.7 8.2-5.2 3.9-9.7 7.4-10 7.7-.3.4-2.7 2.5-5.5 4.8-8.7 7.2-24.7 23.6-32 32.8-2.2 2.7-4.6 5.6-5.3 6.3-.6.8-3.3 4.4-5.9 8-2.5 3.7-5.5 7.7-6.6 8.9-1.1 1.3-1.7 2.3-1.3 2.3.4 0-.5 1.7-2.1 3.7-1.5 2.1-3.3 4.7-3.9 5.8-.6 1.1-2.4 4.2-3.9 7-4 7.1-8.5 16.4-8.5 17.5 0 .6-.4 1-1 1-.5 0-1 .5-1 1 0 .6-.9 2.9-1.9 5.3-4.1 9-5.9 13.6-9.7 25.4l-3.9 12.3H66.2c-60.2 0-60.5 0-64.4 4.1-1.7 1.7-1.8 6.5-1.5 73.3l.2 71.5 2.3 2.3 2.2 2.3h59.4c32.7 0 59.7.2 59.9.5.3.3 2.3 5.9 4.5 12.5s4.6 13.3 5.3 15c.7 1.6 1.3 3.2 1.4 3.5 2 6.5 15 31.8 21.8 42.5 18.8 29.6 44.1 56.9 71 76.7 5.1 3.7 9.7 7.1 10.2 7.6.6.4 3.2 2.1 5.9 3.7 2.8 1.7 7 4.3 9.5 5.8 3.9 2.4 30.6 16 30.6 15.6 0-.1 1.8.6 4 1.5 9.9 4.2 31.3 11 40.8 13.1 1 .2 2.6.6 3.5.9.9.3 3.4.8 5.6 1.2 5.1.8 7.4 1.2 9.4 1.8 1.5.5 5.2.9 17.7 2.2 3.2.3 24.9 1.5 29 1.5H405c5.2 0 13.9-.1 19.3-.1s10.2-.2 10.7-.5 1.1-.1 1.5.5c.4.6 1.1.7 1.7.4.8-.5 7.8-.6 17.8-.2.8 0 4.7 0 8.5-.1h8.5c.8.1 4.7.1 8.5 0H501c5.2 0 13.9-.1 19.3-.1s10.2-.2 10.7-.5 1.1-.1 1.5.5c.4.6 1.1.7 1.7.4.8-.5 7.8-.6 17.8-.2.8 0 4.7 0 8.5-.1 3.9-.1 13-.1 20.3-.1 7.3 0 13.7-.2 14.2-.5s1.1-.1 1.5.5c.4.6 1.1.7 1.7.4.8-.5 7.8-.6 17.8-.2.8 0 4.7 0 8.5-.1 3.9-.1 13.2-.1 20.8.1 7.5.2 13.7.1 13.7-.2 0-.3 4.6-.5 10.3-.6 9.9-.1 20.6-.8 27.7-1.9 1.9-.3 4.9-.8 6.5-1 8-1.2 11.8-1.9 22.5-4.7 6.3-1.6 12.4-3.1 13.5-3.4 2.9-.8 3.8-1 5.5-1.7.8-.4 4.2-1.6 7.5-2.7 3.3-1.2 6.7-2.4 7.5-2.7.8-.3 2-.7 2.5-.8 1.6-.4 28-12.9 28.5-13.6.3-.3 1.9-1.2 3.5-2.1 9.5-4.8 34.7-21.6 38.5-25.8.3-.3 2.8-2.3 5.5-4.5 6.1-4.8 27.4-26 33.4-33.2 2.4-2.8 6.9-8.7 10.2-13 3.2-4.3 6.2-8.3 6.6-8.8 2.9-3.6 16.3-25.9 16.3-27.1 0-.4.6-1.5 1.3-2.3 1.1-1.3 8.8-18 13.3-28.6 2.1-5.1 7.5-20.9 8-23.4.3-1.4.7-2.7.9-3 .2-.4 27.6-.6 60.9-.6h60.7l2.7-2.1 2.7-2.2.3-70.1.2-70.1-4.2-4.5-4.3-4.5-59.4-.2-59.5-.3L924 435c-2.5-7.4-6.2-17.1-8-21.5-3.9-9.2-14.5-30-16-31.5-.3-.3-1.1-1.5-1.7-2.8-.7-1.2-1.9-3.2-2.5-4.4-1.5-2.5-12.3-18.3-13.8-20.1-.6-.7-2.4-3-4.1-5.2-13.4-17.5-34.3-37.5-55.6-53-8.1-5.9-32.2-20.5-33.9-20.5-.6 0-1.7-.7-2.4-1.5-.6-.8-1.5-1.4-1.8-1.3-.4.1-4.7-1.8-9.7-4.1-9.9-4.7-30.5-12.3-38.1-14.2-2.7-.6-5.4-1.6-6-2-.6-.5-1.3-.6-1.7-.3-.3.3-1.4.1-2.5-.5-1-.5-3.7-1.2-5.8-1.5-2.1-.2-3.9-.5-3.9-.6 0-.3-7.4-1.8-12.5-2.6-1.9-.3-4.1-.7-4.8-.9-.7-.3-4.7-.7-9-1.1-8.5-.7-12.4-1.2-13.2-1.5-1-.4-300.1-.5-300.5 0zM404 380c1.4-.4 3.7-.3 5.2.1 1.6.4 3 .3 3.4-.2.4-.6 1.1-.6 2 .2.8.6 1.4.7 1.4.2 0-.5 2-.7 4.8-.3 2.6.3 5.9.3 7.2 0 1.4-.4 3.7-.3 5.2.1 1.6.4 3 .3 3.4-.2.4-.6 1.1-.6 2 .2.8.6 1.4.7 1.4.2 0-.5 2-.7 4.8-.3 2.6.3 5.9.3 7.2 0 1.4-.4 3.7-.3 5.2.1 1.6.4 3 .3 3.4-.2.4-.6 1.1-.6 2 .2.8.6 1.4.7 1.4.2 0-.5 2-.7 4.8-.3 2.6.3 5.9.3 7.2 0 1.4-.4 3.7-.3 5.2.1 1.6.4 3 .3 3.4-.2.4-.6 1.1-.6 2 .2.8.6 1.4.7 1.4.2 0-.5 2-.7 4.8-.3 2.7.3 6 .3 7.4-.1 1.4-.4 3.1-.3 3.8.1.7.4 2.4.4 3.9 0 1.4-.4 3.5-.6 4.6-.4 3.5.6 12.6.7 13.1.1.3-.3 1.9-.1 3.5.3 1.7.5 3.1.5 3.5-.1.4-.6 1.1-.6 2 .2.8.6 1.4.7 1.4.2 0-.5 2-.7 4.8-.3 2.6.3 5.9.3 7.2 0 1.4-.4 3.7-.3 5.2.1 1.6.4 3 .3 3.4-.2.4-.6 1.1-.6 2 .2.8.6 1.4.7 1.4.2 0-.5 2-.7 4.8-.3 2.6.3 5.9.3 7.2 0 1.4-.4 3.7-.3 5.2.1 1.6.4 3 .3 3.4-.2.4-.6 1.1-.6 2 .2.8.6 1.4.7 1.4.2 0-.5 2-.7 4.8-.3 2.6.3 5.9.3 7.2 0 1.4-.4 3.7-.3 5.2.1 1.6.4 3 .3 3.4-.2.4-.6 1.1-.6 2 .2.8.6 1.4.7 1.4.2 0-.5 2-.7 4.8-.3 2.6.3 5.9.3 7.2 0 1.4-.4 3.7-.3 5.2.1 1.6.4 3 .3 3.4-.2.4-.6 1.1-.6 2 .2 1 .8 1.4.8 1.4 0 0-.7.8-.8 2.3-.2 1.2.5 3 .5 4.1.2 1-.4 4-.4 6.6-.1 2.5.3 5.8.3 7.3-.1 1.4-.4 2.8-.5 3-.3.2.2 4.9.6 10.3.9 5.4.3 11 .7 12.4 1 1.4.3 4.1.8 6 1.1 5.3.8 23.8 6.2 27 7.9 1.5.8 3 1.1 3.4.8.3-.4.6-.1.6.5s1.8 1.7 4 2.3c2.2.7 4.5 1.8 5.1 2.6.6.7 1.7 1.3 2.4 1.3 1.2 0 19.4 11.8 21.9 14.2.7.7 3.9 3.5 7.1 6.3 9.1 8 25.8 28.5 24.4 29.9-.2.3-20 .6-43.9.8-42.3.4-43.7.5-50.5 2.7-8.9 2.9-16.5 6.3-16.5 7.2 0 .4-1.1 1-2.5 1.3-1.3.3-3.5 1.7-4.9 3.1-1.4 1.4-2.9 2.5-3.4 2.5-1.4 0-12.3 12.2-15.9 17.8-3.6 5.6-9 17.4-9.7 21.4-.3 1.3-.5 2.3-.6 2.3-.2 0-.9 3.3-1.5 7.5-.8 4.9-.7 17.7.1 22.5 1.6 10.5 10.3 30.4 15.5 35.8.8.8 2.8 2.9 4.5 4.8 8.7 9.5 18.7 15.8 32 20.3 10.7 3.6 14.6 3.9 57.4 4.1 21.7.2 39.8.3 40.3.4.9.1-6.3 11.1-7.4 11.1-.4 0-1 .9-1.4 1.9-1 3.2-24.2 26.1-26.4 26.1-.5 0-1.1.4-1.3.8-.5 1.3-19.9 13.2-22.5 13.8-1.3.4-2.3 1-2.3 1.4 0 .5-1.5 1.2-3.2 1.5-1.8.4-3.7 1.1-4.3 1.4-3.5 2.5-24.6 8.3-35.5 9.8-7.2 1-286.9 1-294 0-3-.4-6.6-.9-8-1.1-1.4-.2-4.5-.9-7-1.6-2.5-.7-5.2-1.3-6.1-1.5-8.2-1.6-28.2-10.5-38.7-17.1-2.9-1.9-5.7-3.4-6.2-3.4-.6 0-1-.4-1-.9 0-.4-1.8-2-4-3.5-8.4-5.5-23.6-21.4-31.7-33.2-4.3-6.1-6.6-5.8 38.2-6 22.6-.1 41-.3 41-.4 0-.1 1.4-.4 3-.6 5.1-.7 14.9-3.6 16.4-4.8.8-.6 1.6-1 1.8-.8.7.5 12-5.7 15.8-8.8 8.1-6.5 13.6-12.2 17.8-18.8 13.3-20.9 16.3-42.6 9-66-1.4-4.5-2.9-8.5-3.4-8.8-.5-.3-.9-1.2-.9-2s-.5-2-1-2.7c-.6-.7-2.6-3.7-4.7-6.7-3.8-5.8-14.6-17-16.3-17-.5 0-1-.3-1-.8 0-.7-2.8-2.5-10.8-6.8-4.2-2.2-13.3-5.7-18.8-7-1.6-.4-22.2-.9-45.9-1.1-23.6-.3-43.1-.6-43.3-.8-.4-.3 8.4-12.9 12-17.1 2.8-3.3 13.7-14.1 17.1-17.1 4.4-3.8 18.1-13 22-14.9 2-1 3.7-2.1 3.7-2.6 0-.4.8-.8 1.8-.8s2.6-.6 3.7-1.4c1.1-.7 4.9-2.4 8.5-3.8 3.6-1.4 7.4-2.9 8.5-3.3 2.6-1 2.9-1.1 10.5-3 10.4-2.6 19.8-4.1 24.8-4 1.7 0 3.2-.2 3.2-.5 0-.4 2.1-.4 4.8 0 2.6.3 5.9.3 7.2 0z"/></svg>